# xmcd CD database file
#
# Track frame offsets:
#	150
#	18540
#	49367
#	78569
#	107050
#	126514
#	155853
#	176862
#	197211
#	235728
#	257214
#	284765
#
# Disc length: 4328 seconds
#
# Revision: 0
# Processed by: cddbd v1.5.2PL0 Copyright (c) Steve Scherf et al.
# Submitted via: CDex 1.70beta2
#
DISCID=bd10e60c
DTITLE=NATHAN HAINES - THE CHILLIFUNK YEARS [CD1)
DYEAR=2006
DGENRE=Jazz
TTITLE0=SQUIRE FOR HIRE (FEATURING MARLENA SHAW)
TTITLE1=EARTH IS THE PLACE
TTITLE2=RIGHT BY YOUR SIDE
TTITLE3=WONDERFUL THING (FEATURING VANESSA FREEMAN)
TTITLE4=LET IT GO (FEATURING. RICH MEDINA)
TTITLE5=O MISTERIO (FEATURING GUIDA DE PALMA)
TTITLE6=FM
TTITLE7=HONEYCOMB
TTITLE8=SOUNDTRAVELS
TTITLE9=DOOT DUDE (FEATURING LYRIC L)
TTITLE10=SPRINGTIME (FEATURING RICH MEDINA)
TTITLE11=ILLEST HOBO
EXTD=YEAR: 2006
EXTT0=
EXTT1=
EXTT2=
EXTT3=
EXTT4=
EXTT5=
EXTT6=
EXTT7=
EXTT8=
EXTT9=
EXTT10=
EXTT11=
PLAYORDER=
